<?xml version="1.0"?>
<svg version="1.1" xmlns="http://www.w3.org/2000/svg" width="200px" height="40px" style=""><path fill="#cf3c85" d="M15.861328125,31.703125q0.08203125-2.21484375,0.1435546875-4.5390625t0.1162109375-4.5869140625t0.08203125-4.3955078125t0.02734375-3.978515625q0.02734375-0.369140625,0.642578125-0.587890625t1.4697265625-0.3212890625t1.8046875-0.1298828125t1.6884765625-0.02734375q0.1640625,0,0.68359375-0.013671875l0.259765625,0q0.396484375,0,0.833984375,0.02734375q0.57421875,0.041015625,1.0048828125,0.177734375t0.4306640625,0.396484375q0,0.19140625-0.150390625,0.3076171875t-0.3486328125,0.1708984375t-0.41015625,0.068359375t-0.2939453125,0.013671875q-1.28515625,0-2.54296875-0.041015625q-0.341796875-0.013671875-0.697265625-0.013671875q-0.9296875,0-1.88671875,0.08203125q0.0546875,0.1640625,0.0888671875,0.9912109375t0.0341796875,1.8662109375t-0.013671875,2.0302734375t0,1.5244140625l0,3.5546875q0.423828125-0.02734375,0.833984375-0.02734375l0.8203125,0l0.546875-0.02734375q0.2734375-0.013671875,0.57421875-0.013671875q0.314453125,0,0.642578125,0.013671875q0.65625,0.02734375,1.1962890625,0.1572265625t0.5400390625,0.4580078125q0,0.24609375-0.205078125,0.3623046875t-0.4580078125,0.1708984375t-0.478515625,0.0546875l-0.2529296875,0q-0.779296875,0-1.6201171875-0.0546875t-1.5654296875-0.0546875q-0.13671875,0.0546875-0.2939453125,0.041015625t-0.2802734375-0.013671875q0,2.05078125-0.041015625,4.0810546875t-0.095703125,4.0400390625q0,0.396484375-0.4990234375,0.51953125t-0.9501953125,0.123046875q-0.505859375,0-0.7998046875-0.123046875t-0.4169921875-0.4033203125t-0.150390625-0.7451171875q-0.013671875-0.259765625-0.02734375-0.57421875q0-0.259765625,0.013671875-0.560546875z M27.01306640625,25.072265625q0-0.560546875,0.1982421875-0.943359375t0.8408203125-0.3828125q0.24609375,0,0.615234375,0.0751953125t0.423828125,0.3759765625q0.13671875,0.806640625,0.150390625,1.75t0.095703125,1.77734375q0.314453125-0.615234375,0.806640625-1.326171875t1.12109375-1.3125t1.3671875-0.998046875t1.50390625-0.396484375q0.0546875,0,0.205078125,0.041015625t0.2802734375,0.1162109375t0.1572265625,0.1708984375t-0.150390625,0.177734375q-0.0546875,0.1640625-0.232421875,0.1982421875t-0.314453125,0.0341796875q-0.08203125,0-0.259765625-0.068359375q-1.01171875,0.533203125-1.72265625,1.44921875t-1.162109375,2.0302734375t-0.65625,2.3515625t-0.205078125,2.4130859375q0,0.587890625-0.2666015625,0.7109375t-0.8544921875,0.123046875q-0.314453125,0-0.6630859375-0.068359375t-0.4853515625-0.4375q-0.24609375-0.779296875-0.4033203125-1.791015625t-0.2392578125-2.0849609375t-0.1162109375-2.1123046875t-0.0341796875-1.873046875z M36.7292578125,29.4609375q0-0.95703125,0.2119140625-2.255859375t0.7177734375-2.4609375t1.3330078125-1.9755859375t2.0849609375-0.8134765625q1.17578125,0,1.763671875,0.6767578125t0.587890625,1.8251953125q0,0.751953125-0.2802734375,1.6474609375t-0.7998046875,1.6953125t-1.23046875,1.3330078125t-1.5859375,0.533203125l-0.35546875-0.02734375q0,0.369140625,0.109375,0.9912109375t0.3212890625,1.2373046875t0.546875,1.080078125t0.8134765625,0.46484375q0.697265625,0,1.33984375-0.560546875t1.216796875-1.244140625t1.06640625-1.244140625t0.90234375-0.560546875q0.21875,0,0.451171875,0.068359375t0.259765625,0.3828125q0,0.19140625-0.1025390625,0.314453125t-0.1845703125,0.2734375q-0.423828125,0.724609375-0.9228515625,1.380859375t-1.1279296875,1.189453125t-1.3740234375,0.8408203125t-1.6474609375,0.3076171875q-1.17578125,0-1.955078125-0.4169921875t-1.2578125-1.12109375t-0.6904296875-1.626953125t-0.2119140625-1.9345703125z M39.1765234375,28.421875l0.3828125,0.341796875q0.2734375,0.24609375,0.546875,0.109375t0.4921875-0.4990234375t0.4033203125-0.8955078125t0.328125-1.09375t0.2119140625-1.09375t0.068359375-0.888671875l0-0.46484375t-0.041015625-0.4921875t-0.1435546875-0.3896484375t-0.3212890625-0.1982421875q-0.068359375-0.013671875-0.123046875-0.013671875q-0.46484375,0-0.79296875,0.587890625q-0.35546875,0.65625-0.57421875,1.5927734375t-0.314453125,1.9208984375t-0.123046875,1.4765625z M48.15443359375,29.4609375q0-0.95703125,0.2119140625-2.255859375t0.7177734375-2.4609375t1.3330078125-1.9755859375t2.0849609375-0.8134765625q1.17578125,0,1.763671875,0.6767578125t0.587890625,1.8251953125q0,0.751953125-0.2802734375,1.6474609375t-0.7998046875,1.6953125t-1.23046875,1.3330078125t-1.5859375,0.533203125l-0.35546875-0.02734375q0,0.369140625,0.109375,0.9912109375t0.3212890625,1.2373046875t0.546875,1.080078125t0.8134765625,0.46484375q0.697265625,0,1.33984375-0.560546875t1.216796875-1.244140625t1.06640625-1.244140625t0.90234375-0.560546875q0.21875,0,0.451171875,0.068359375t0.259765625,0.3828125q0,0.19140625-0.1025390625,0.314453125t-0.1845703125,0.2734375q-0.423828125,0.724609375-0.9228515625,1.380859375t-1.1279296875,1.189453125t-1.3740234375,0.8408203125t-1.6474609375,0.3076171875q-1.17578125,0-1.955078125-0.4169921875t-1.2578125-1.12109375t-0.6904296875-1.626953125t-0.2119140625-1.9345703125z M50.60169921875,28.421875l0.3828125,0.341796875q0.2734375,0.24609375,0.546875,0.109375t0.4921875-0.4990234375t0.4033203125-0.8955078125t0.328125-1.09375t0.2119140625-1.09375t0.068359375-0.888671875l0-0.46484375t-0.041015625-0.4921875t-0.1435546875-0.3896484375t-0.3212890625-0.1982421875q-0.068359375-0.013671875-0.123046875-0.013671875q-0.46484375,0-0.79296875,0.587890625q-0.35546875,0.65625-0.57421875,1.5927734375t-0.314453125,1.9208984375t-0.123046875,1.4765625z M59.579609375,28.736328125q0-1.06640625,0.2255859375-1.9345703125t0.7177734375-1.4697265625t1.2919921875-0.9365234375t1.9482421875-0.3349609375q0.642578125,0,1.3125,0.1708984375t1.1484375,0.6357421875q0-0.2734375,0.0546875-1.1279296875t0.13671875-1.9892578125t0.1708984375-2.37890625t0.1572265625-2.310546875t0.123046875-1.791015625t0.08203125-0.8203125q0.13671875-0.396484375,0.505859375-0.4716796875t0.697265625-0.0751953125q0.861328125,0,1.0595703125,0.2734375t0.1982421875,1.09375q0,2.994140625-0.2666015625,5.9609375t-0.2666015625,5.9609375q0,1.927734375,0.0751953125,3.8759765625t0.5400390625,3.8349609375l0.150390625,0.13671875l0.08203125,0.24609375l-0.205078125,0.314453125q-0.51953125,0.328125-1.203125,0.328125l-0.0546875,0q-0.697265625,0-1.28515625-0.328125q-0.21875-0.13671875-0.3623046875-0.8134765625t-0.2255859375-1.490234375t-0.123046875-1.5654296875t-0.068359375-1.06640625q-0.478515625,1.09375-1.3056640625,1.8798828125t-2.0849609375,0.7861328125q-0.984375,0-1.61328125-0.423828125t-0.9775390625-1.080078125t-0.4921875-1.4697265625t-0.1435546875-1.6201171875z M61.23390625,28.818359375q0,0.314453125,0.0751953125,0.9296875t0.2392578125,1.23046875t0.4580078125,1.09375t0.7724609375,0.478515625q0.642578125-0.314453125,1.162109375-1.0458984375t0.8955078125-1.61328125t0.587890625-1.763671875t0.2119140625-1.5244140625q0-0.806640625-0.587890625-1.33984375t-1.408203125-0.533203125q-0.24609375,0-0.4990234375,0.095703125t-0.4716796875,0.21875q-0.505859375,0.478515625-0.7861328125,0.8681640625t-0.423828125,0.806640625t-0.1845703125,0.9228515625t-0.041015625,1.17578125z M72.24892578125,29.16015625q0-0.779296875,0.1982421875-1.6064453125t0.62890625-1.490234375t1.0869140625-1.080078125t1.5859375-0.4169921875q0.697265625,0,1.4697265625,0.2392578125t1.4150390625,0.68359375t1.0458984375,1.0869140625t0.4033203125,1.435546875q0,0.95703125-0.3486328125,1.818359375t-0.9775390625,1.5380859375t-1.4697265625,1.06640625t-1.8251953125,0.3896484375q-0.806640625,0-1.408203125-0.2939453125t-1.0048828125-0.7861328125t-0.6015625-1.162109375t-0.1982421875-1.421875z M74.25869140625,29.1328125q0,0.24609375,0.0751953125,0.724609375t0.2255859375,0.9365234375t0.3896484375,0.79296875t0.5810546875,0.3076171875q0.724609375-0.08203125,1.1962890625-0.4716796875t0.765625-0.9501953125t0.41015625-1.216796875t0.1162109375-1.244140625q0-0.751953125-0.2939453125-1.2578125t-0.9638671875-0.8203125q0,0.02734375,0.02734375,0.02734375t0.02734375-0.02734375l-0.341796875-0.08203125q-0.13671875-0.0546875-0.3349609375-0.123046875t-0.3896484375-0.30078125q-0.533203125,0.19140625-0.8271484375,0.4921875t-0.4443359375,0.7314453125t-0.1845703125,1.0322265625t-0.0341796875,1.44921875z M82.641875,25.4755859375q-0.0341796875-0.4580078125,0.0546875-0.8408203125t0.35546875-0.6220703125t0.8544921875-0.2392578125q0.13671875,0,0.3349609375,0.0341796875t0.3896484375,0.0888671875t0.3212890625,0.1640625t0.1298828125,0.30078125l0,1.544921875q0.533203125-0.615234375,1.162109375-0.8818359375t1.435546875-0.2666015625q0.615234375,0,1.216796875,0.2802734375t1.134765625,0.7451171875t0.9228515625,1.025390625t0.5673828125,1.12109375q0.109375-0.505859375,0.24609375-1.2373046875t0.4033203125-1.4013671875t0.7041015625-1.1484375t1.162109375-0.478515625q0.779296875,0,1.3125,0.560546875t0.8681640625,1.4560546875t0.505859375,2.0029296875t0.2529296875,2.1875t0.08203125,2.0166015625l0,1.4697265625q0,0.1640625-0.123046875,0.2666015625t-0.3076171875,0.1572265625t-0.3828125,0.068359375t-0.3076171875,0.013671875q-0.423828125,0-0.7724609375-0.1298828125t-0.3486328125-0.6630859375l0-1.23046875t-0.02734375-1.5927734375t-0.095703125-1.708984375t-0.177734375-1.5517578125t-0.2802734375-1.12109375t-0.4169921875-0.4375q-0.341796875,0-0.4921875,0.3828125t-0.2529296875,0.970703125t-0.1572265625,1.244140625t-0.150390625,1.244140625t-0.3076171875,0.9638671875t-0.5810546875,0.3759765625q-0.396484375,0-0.697265625-0.3759765625t-0.5947265625-0.9365234375t-0.587890625-1.203125t-0.6494140625-1.203125q-0.35546875-0.57421875-0.765625-0.9296875q-0.369140625-0.341796875-0.833984375-0.328125l-0.068359375,0q-0.615234375,0.02734375-0.9638671875,0.4443359375t-0.533203125,1.0185546875t-0.2255859375,1.2919921875t-0.041015625,1.2099609375q0,0.4921875,0.08203125,1.1484375q0.0546875,0.4375,0.0546875,0.833984375q0,0.205078125-0.013671875,0.396484375q-0.041015625,0.57421875-0.3076171875,0.9638671875t-0.9912109375,0.3896484375q-0.2734375,0-0.68359375-0.0546875t-0.546875-0.369140625q-0.314453125-0.560546875-0.478515625-1.4150390625t-0.24609375-1.763671875t-0.095703125-1.8046875t-0.013671875-1.5380859375q0-0.451171875-0.0341796875-0.9091796875z M99.91177734375,26.97265625l0-2.16015625q0-2.2421875,0.0751953125-4.4501953125t0.1298828125-4.4501953125q0-0.423828125-0.02734375-0.943359375q-0.013671875-0.150390625-0.013671875-0.287109375q0-0.341796875,0.0546875-0.669921875q0.068359375-0.4375,0.3349609375-0.751953125t0.8818359375-0.314453125q0.505859375,0,0.7724609375,0.109375t0.3759765625,0.3212890625t0.123046875,0.533203125t0.013671875,0.7451171875q0,2.26953125-0.0546875,4.552734375q-0.041015625,1.517578125-0.041015625,3.03515625q0,0.765625,0.013671875,1.53125q0.02734375,2.26953125,0.2119140625,4.5390625t0.6220703125,4.484375q1.3671875-0.0546875,2.734375-0.13671875t2.734375-0.08203125q0.13671875,0,0.3896484375,0.02734375t0.505859375,0.095703125t0.4306640625,0.177734375t0.177734375,0.314453125q0,0.13671875-0.123046875,0.232421875t-0.232421875,0.150390625l-0.02734375,0q-0.21875,0.109375-0.8681640625,0.2119140625t-1.4765625,0.1572265625t-1.736328125,0.095703125t-1.708984375,0.068359375t-1.3876953125,0.041015625t-0.724609375,0.013671875l-0.123046875,0q-0.328125,0-0.73828125-0.109375q-0.4921875-0.13671875-0.615234375-0.533203125q-0.24609375-1.01171875-0.3896484375-2.0986328125t-0.21875-2.2080078125t-0.0751953125-2.2421875z M112.321328125,28.900390625q0-0.9296875,0.2529296875-1.791015625t0.7587890625-1.5380859375t1.2646484375-1.080078125t1.7568359375-0.4033203125q0.615234375,0,1.3603515625,0.1845703125t1.4013671875,0.546875t1.09375,0.9228515625t0.4375,1.28515625q0,0.341796875-0.1162109375,0.51953125t-0.4716796875,0.177734375l-0.150390625-0.02734375q0.396484375,1.06640625,0.68359375,2.1875t0.560546875,2.2421875q0.109375,0.21875,0.1640625,0.3896484375t0.0546875,0.3349609375q0,0.21875-0.123046875,0.3623046875t-0.3212890625,0.2119140625t-0.41015625,0.095703125t-0.3759765625,0.02734375q-0.587890625,0-0.8818359375-0.205078125t-0.423828125-0.560546875t-0.1572265625-0.7998046875t-0.109375-0.8955078125q-0.1640625,0.533203125-0.4306640625,1.0390625t-0.62890625,0.9091796875t-0.8544921875,0.642578125t-1.107421875,0.2392578125q-0.90234375,0-1.517578125-0.51953125t-0.9912109375-1.2783203125t-0.546875-1.6201171875t-0.1708984375-1.599609375z M114.262734375,28.708984375q0,0.505859375,0.068359375,1.06640625t0.2255859375,1.107421875t0.4033203125,1.0322265625t0.615234375,0.8544921875q0.669921875-0.724609375,0.9912109375-1.763671875t0.57421875-2.0029296875t0.57421875-1.654296875t0.9912109375-0.6904296875q0.423828125,0,0.7109375,0.150390625q-0.13671875-0.341796875-0.451171875-0.6630859375t-0.7041015625-0.587890625t-0.806640625-0.4375t-0.7861328125-0.1708984375q-0.109375,0-0.2529296875,0.0341796875t-0.2255859375,0.0068359375q-0.560546875,0.1640625-0.9228515625,0.5673828125t-0.587890625,0.9501953125t-0.3212890625,1.12109375t-0.095703125,1.080078125z M124.17033203125,24.921875q0-0.95703125,0.0888671875-2.48828125t0.2119140625-3.158203125t0.3076171875-3.0830078125t0.4033203125-2.2353515625q0.08203125-0.341796875,0.3896484375-0.41015625t0.6220703125-0.068359375q0.423828125,0,0.7314453125,0.150390625t0.3076171875,0.65625q0,2.48828125-0.3076171875,4.9833984375t-0.3349609375,4.9833984375q0.423828125-0.642578125,1.09375-0.9638671875t1.421875-0.3212890625q1.0390625,0,1.791015625,0.423828125t1.216796875,1.09375t0.6904296875,1.5517578125t0.2255859375,1.7978515625q0,0.505859375-0.1025390625,1.2646484375t-0.3076171875,1.599609375t-0.51953125,1.66796875t-0.7451171875,1.4833984375t-0.9912109375,1.0595703125t-1.23046875,0.4033203125q-0.13671875,0-0.3623046875-0.041015625t-0.451171875-0.123046875t-0.3759765625-0.2119140625t-0.150390625-0.3212890625q0-0.21875,0.2666015625-0.3076171875t0.4306640625-0.0888671875q0.615234375-0.2734375,1.09375-1.1416015625t0.7998046875-1.9072265625t0.4853515625-2.0576171875t0.1640625-1.6611328125q0-0.369140625-0.109375-0.984375t-0.3349609375-1.216796875t-0.615234375-1.0390625t-0.9228515625-0.4375q-0.642578125,0-1.025390625,0.6630859375t-0.6015625,1.544921875t-0.2939453125,1.818359375t-0.0751953125,1.4697265625q0,0.341796875,0.1162109375,0.6767578125t0.2666015625,0.669921875t0.2666015625,0.68359375t0.1162109375,0.6904296875q0,0.1640625-0.1435546875,0.2734375t-0.3349609375,0.177734375t-0.4033203125,0.0888671875t-0.3212890625,0.0205078125q-0.779296875,0-1.080078125-0.369140625t-0.51953125-1.0390625q-0.478515625-1.517578125-0.6630859375-3.0830078125t-0.1845703125-3.1376953125z"/><path fill="#" d=""/></svg>
